<svg width="116" height="134" viewBox="0 0 116 134" fill="none" xmlns="http://www.w3.org/2000/svg">
<path d="M35.2847 0.000250588C27.3564 0.0342514 20.0098 1.64731 16.4277 2.77132C16.4277 2.77132 48.9209 8.29928 51.6239 30.7869C26.9325 -4.90295 0 38.2602 0 38.2602C5.61525 36.7835 21.6945 32.4002 32.4315 34.2493C39.7776 35.5144 46.9388 42.1913 46.6296 42.1071C29.1228 46.4252 1.31026 124.536 6.03297 130.88C10.2441 135.731 14.4598 134.076 18.6715 131.615C20.7562 115.061 37.0248 42.4296 56.9323 48.2927C56.9351 48.2936 56.9379 48.2919 56.9407 48.2927C58.6167 48.8679 60.2023 49.8766 60.2882 51.418C60.4521 54.3542 58.5613 59.1532 59.0079 62.4861C60.0429 70.2201 61.5535 72.9102 63.7504 75.6084C68.9971 72.6518 74.0171 61.9919 75.0555 56.4648C79.7567 58.5287 87.3139 63.3089 93.4792 81.0624C96.7022 64.4258 92.0541 51.3032 76.7956 45.4763C83.4035 42.6132 112.164 57.1018 115.675 65.177C119.09 50.6158 94.931 32.7977 74.8172 33.7446C78.6734 32.7359 82.9111 33.9146 86.9437 30.9376C92.3549 26.9431 98.6654 23.5027 104.546 19.8074C84.7697 11.184 66.5196 15.442 65.2345 24.3678C64.2246 4.55778 48.8901 -0.0572676 35.2844 0.000533773L35.2847 0.000250588Z" fill="#F2DA5E"/>
</svg>
