<svg width="142" height="142" viewBox="0 0 142 142" fill="none" xmlns="http://www.w3.org/2000/svg">
<path d="M87.5782 93.6955C90.0964 92.5329 92.748 88.92 94.1712 85.0089C94.9269 82.9176 95.3645 80.6654 95.4223 78.6375" stroke="#F27EA9" stroke-width="3" stroke-linecap="round" stroke-linejoin="round"/>
<path d="M107.299 34.9109C112.605 40.3506 116.634 46.9038 119.092 54.0946C121.55 61.2854 122.375 68.9334 121.509 76.4831C120.642 84.0328 118.105 91.2948 114.082 97.7417C110.058 104.189 104.65 109.659 98.2487 113.754C91.8476 117.85 84.6147 120.469 77.0753 121.421C69.5358 122.373 61.879 121.633 54.6609 119.257C47.4428 116.88 40.8446 112.926 35.3453 107.681C29.8461 102.437 25.5839 96.0329 22.8682 88.9354M96.2123 26.3202C88.0923 21.6511 78.8467 19.3 69.4827 19.5231C60.1187 19.7462 50.9955 22.5349 43.1072 27.5853C35.2161 32.6316 28.8613 39.7468 24.7351 48.1557C20.6089 56.5645 18.8697 65.9445 19.7068 75.2737" stroke="#F27EA9" stroke-width="3" stroke-linecap="round" stroke-linejoin="round"/>
<path d="M57.9596 50.7968L14.8523 78.3798L18.0349 83.3537C21.6927 89.0701 27.4714 93.0993 34.0999 94.555C40.7284 96.0107 47.6637 94.7736 53.3801 91.1158C59.0965 87.4581 63.1257 81.6793 64.5814 75.0508C66.0371 68.4223 64.8 61.4871 61.1422 55.7707M57.9596 50.7968L61.1422 55.7707M57.9596 50.7968L101.067 23.2138L104.25 28.1877C107.907 33.9041 109.144 40.8394 107.689 47.4679C106.233 54.0964 102.204 59.8751 96.4874 63.5328C90.771 67.1906 83.8357 68.4277 77.2072 66.972C70.5787 65.5163 64.8 61.4871 61.1422 55.7707" stroke="#F27EA9" stroke-width="3" stroke-linecap="round" stroke-linejoin="round"/>
</svg>
