<svg xmlns="http://www.w3.org/2000/svg" version="1.1" xmlns:xlink="http://www.w3.org/1999/xlink" xmlns:svgjs="http://svgjs.dev/svgjs" viewBox="0 0 800 800" width="150" height="150"><defs><radialGradient id="ccclaymoji-grad-dark" r="93%" cx="20%" cy="20%">
      <stop offset="70%" stop-color="hsl(50, 98%, 50%)" stop-opacity="0"></stop>
      <stop offset="97%" stop-color="#c4a200" stop-opacity="1"></stop>
    </radialGradient><radialGradient id="ccclaymoji-grad-light" r="65%" cx="28%" cy="20%">
    <stop offset="0%" stop-color="#ffff52" stop-opacity="0.75"></stop>
    <stop offset="100%" stop-color="hsl(50, 98%, 50%)" stop-opacity="0"></stop>
  </radialGradient><filter id="inner-blur" x="-100%" y="-100%" width="400%" height="400%" filterUnits="objectBoundingBox" primitiveUnits="userSpaceOnUse" color-interpolation-filters="sRGB">
	<feGaussianBlur stdDeviation="2" x="0%" y="0%" width="100%" height="100%" in="SourceGraphic" edgeMode="none" result="blur"></feGaussianBlur></filter><filter id="eye-shadow" x="-100%" y="-100%" width="400%" height="400%" filterUnits="objectBoundingBox" primitiveUnits="userSpaceOnUse" color-interpolation-filters="sRGB">
	<feDropShadow stdDeviation="10" dx="10" dy="10" flood-color="#000000" flood-opacity="0.2" x="0%" y="0%" width="100%" height="100%" result="dropShadow"></feDropShadow>
</filter><linearGradient gradientTransform="rotate(-25)" id="eye-light" x1="50%" y1="0%" x2="50%" y2="100%">
      <stop offset="20%" stop-color="#555555" stop-opacity="1"></stop>
      <stop offset="100%" stop-color="black" stop-opacity="0"></stop>
    </linearGradient><linearGradient id="mouth-light" x1="50%" y1="0%" x2="50%" y2="100%">
    <stop offset="0%" stop-color="#ff9667" stop-opacity="1"></stop>
    <stop offset="100%" stop-color="hsl(3, 100%, 51%)" stop-opacity="0"></stop>
  </linearGradient><filter id="mouth-shadow" x="-100%" y="-100%" width="400%" height="400%" filterUnits="objectBoundingBox" primitiveUnits="userSpaceOnUse" color-interpolation-filters="sRGB">
	<feDropShadow stdDeviation="10" dx="10" dy="10" flood-color="#c20000" flood-opacity="0.2" x="0%" y="0%" width="100%" height="100%" result="dropShadow"></feDropShadow>
</filter></defs><g stroke-linecap="round" transform="rotate(346, 400, 400)"><path d="M655.5 399.99999242914305C655.5 548.3272174930817 548.3272250639386 668.569046137583 400 668.569046137583C251.6734283887468 668.569046137583 144.5 548.3272174930817 144.5 399.99999242914305C144.5 251.67342081788985 251.6734283887468 131.43093872070312 400 131.43093872070312C548.3272250639386 131.43093872070312 655.5 251.67342081788985 655.5 399.99999242914305Z " fill="hsl(50, 98%, 50%)"></path><path d="M655.5 399.99999242914305C655.5 548.3272174930817 548.3272250639386 668.569046137583 400 668.569046137583C251.6734283887468 668.569046137583 144.5 548.3272174930817 144.5 399.99999242914305C144.5 251.67342081788985 251.6734283887468 131.43093872070312 400 131.43093872070312C548.3272250639386 131.43093872070312 655.5 251.67342081788985 655.5 399.99999242914305Z " fill="url(#ccclaymoji-grad-dark)"></path><path d="M655.5 399.99999242914305C655.5 548.3272174930817 548.3272250639386 668.569046137583 400 668.569046137583C251.6734283887468 668.569046137583 144.5 548.3272174930817 144.5 399.99999242914305C144.5 251.67342081788985 251.6734283887468 131.43093872070312 400 131.43093872070312C548.3272250639386 131.43093872070312 655.5 251.67342081788985 655.5 399.99999242914305Z " fill="url(#ccclaymoji-grad-light)"></path><ellipse rx="46" ry="72.5" cx="350" cy="375" fill="black" filter="url(#eye-shadow)"></ellipse><ellipse rx="46" ry="72.5" cx="350" cy="375" fill="url(#eye-light)" filter="url(#inner-blur)"></ellipse><ellipse rx="33.5" ry="64.5" cx="475" cy="375" fill="black" filter="url(#eye-shadow)"></ellipse><ellipse rx="33.5" ry="64.5" cx="475" cy="375" fill="url(#eye-light)" filter="url(#inner-blur)"></ellipse><path d="M266 487Q437 687 516 487 " fill="hsl(3, 100%, 51%)" filter="url(#mouth-shadow)"></path><path d="M266 487Q437 687 516 487 " fill="url(#mouth-light)" filter="url(#inner-blur)"></path></g></svg>